<svg xmlns="http://www.w3.org/2000/svg" width="900" height="620" viewBox="0 0 900 620">
  <style>
    .title { font: 600 24px system-ui, sans-serif; fill: #2f3e46; }
    .subtitle { font: 400 14px system-ui, sans-serif; fill: #6b7c85; }
    .node { fill: #f9fbfc; stroke: #94a3ad; stroke-width: 1.5; }
    .centre { fill: #f1f5f7; stroke: #5f7380; stroke-width: 1.8; }
    .label { font: 600 16px system-ui, sans-serif; fill: #2f3e46; text-anchor: middle; }
    .sub { font: 400 13px system-ui, sans-serif; fill: #6b7c85; text-anchor: middle; }
    .line { stroke: #b0bcc5; stroke-width: 1.5; fill: none; }
    .footer { font: 400 13px system-ui, sans-serif; fill: #6b7c85; text-anchor: middle; }
  </style>

  <!-- Title -->
  <text class="title" x="450" y="50" text-anchor="middle">The Core Structure of APS</text>
  <text class="subtitle" x="450" y="75" text-anchor="middle">Agency, Process, and Scale as dimensions of organised biological persistence</text>

  <!-- Triangle connections -->
  <line class="line" x1="450" y1="165" x2="665" y2="405"/>
  <line class="line" x1="665" y1="405" x2="235" y2="405"/>
  <line class="line" x1="235" y1="405" x2="450" y2="165"/>

  <!-- Centre -->
  <rect class="centre" x="300" y="255" width="300" height="105" rx="18"/>
  <text class="label" x="450" y="292">Organised Biological Persistence</text>
  <text class="sub" x="450" y="318">Sustained viability across time</text>
  <text class="sub" x="450" y="338">through coordinated activity</text>

  <!-- Agency -->
  <rect class="node" x="335" y="105" width="230" height="75" rx="14"/>
  <text class="label" x="450" y="138">Agency</text>
  <text class="sub" x="450" y="160">Viability-oriented activity</text>

  <!-- Process -->
  <rect class="node" x="120" y="385" width="230" height="75" rx="14"/>
  <text class="label" x="235" y="418">Process</text>
  <text class="sub" x="235" y="440">Continuity through time</text>

  <!-- Scale -->
  <rect class="node" x="550" y="385" width="230" height="75" rx="14"/>
  <text class="label" x="665" y="418">Scale</text>
  <text class="sub" x="665" y="440">Coordination across extent</text>

  <!-- Footer -->
  <text class="footer" x="450" y="525">Agency, Process, and Scale are not separate components</text>
  <text class="footer" x="450" y="548">but interdependent dimensions of one organised system</text>
</svg>