<?xml version="1.0" encoding="UTF-8" standalone="no"?>
<!DOCTYPE svg PUBLIC "-//W3C//DTD SVG 1.1//EN"
 "http://www.w3.org/Graphics/SVG/1.1/DTD/svg11.dtd">
<!-- Generated by graphviz version 2.43.0 (0)
 -->
<!-- Title: APS_Geometry Pages: 1 -->
<svg width="662pt" height="642pt"
 viewBox="0.00 0.00 661.50 642.00" xmlns="http://www.w3.org/2000/svg" xmlns:xlink="http://www.w3.org/1999/xlink">
<g id="graph0" class="graph" transform="scale(1 1) rotate(0) translate(4 638)">
<title>APS_Geometry</title>
<polygon fill="white" stroke="transparent" points="-4,4 -4,-638 657.5,-638 657.5,4 -4,4"/>
<!-- A -->
<g id="node1" class="node">
<title>A</title>
<ellipse fill="none" stroke="black" stroke-width="2" cx="454" cy="-616" rx="44.39" ry="18"/>
<text text-anchor="middle" x="454" y="-612.3" font-family="Times,serif" font-size="14.00">Agency</text>
</g>
<!-- P -->
<g id="node2" class="node">
<title>P</title>
<ellipse fill="none" stroke="black" stroke-width="2" cx="295" cy="-498" rx="46.59" ry="18"/>
<text text-anchor="middle" x="295" y="-494.3" font-family="Times,serif" font-size="14.00">Process</text>
</g>
<!-- A&#45;&gt;P -->
<g id="edge4" class="edge">
<title>A&#45;&gt;P</title>
<path fill="none" stroke="black" d="M415.89,-606.76C366.23,-593.61 353.39,-582 313.09,-524.21"/>
<polygon fill="black" stroke="black" points="315.79,-521.96 307.22,-515.74 310.04,-525.95 315.79,-521.96"/>
<text text-anchor="middle" x="378" y="-554.8" font-family="Times,serif" font-size="9.00">acts through</text>
</g>
<!-- BIO -->
<g id="node4" class="node">
<title>BIO</title>
<path fill="none" stroke="black" stroke-width="2" d="M203,-256C203,-256 125,-256 125,-256 119,-256 113,-250 113,-244 113,-244 113,-230 113,-230 113,-224 119,-218 125,-218 125,-218 203,-218 203,-218 209,-218 215,-224 215,-230 215,-230 215,-244 215,-244 215,-250 209,-256 203,-256"/>
<text text-anchor="middle" x="164" y="-240.8" font-family="Times,serif" font-size="14.00">Biological</text>
<text text-anchor="middle" x="164" y="-225.8" font-family="Times,serif" font-size="14.00">Explanation</text>
</g>
<!-- A&#45;&gt;BIO -->
<g id="edge1" class="edge">
<title>A&#45;&gt;BIO</title>
<path fill="none" stroke="black" d="M428.68,-600.91C298.31,-522.82 287.18,-506.11 177.07,-265.57"/>
<polygon fill="black" stroke="black" points="180.11,-263.81 172.77,-256.18 173.75,-266.72 180.11,-263.81"/>
<text text-anchor="middle" x="62" y="-436" font-family="Times,serif" font-size="10.00">viability&#45;oriented</text>
<text text-anchor="middle" x="62" y="-425" font-family="Times,serif" font-size="10.00">activity</text>
</g>
<!-- V -->
<g id="node5" class="node">
<title>V</title>
<path fill="none" stroke="black" d="M641.5,-516C641.5,-516 602.5,-516 602.5,-516 596.5,-516 590.5,-510 590.5,-504 590.5,-504 590.5,-492 590.5,-492 590.5,-486 596.5,-480 602.5,-480 602.5,-480 641.5,-480 641.5,-480 647.5,-480 653.5,-486 653.5,-492 653.5,-492 653.5,-504 653.5,-504 653.5,-510 647.5,-516 641.5,-516"/>
<text text-anchor="middle" x="622" y="-495.2" font-family="Times,serif" font-size="11.00">Viability</text>
</g>
<!-- A&#45;&gt;V -->
<g id="edge7" class="edge">
<title>A&#45;&gt;V</title>
<path fill="none" stroke="black" stroke-dasharray="5,2" d="M491.55,-606.32C556.47,-588.92 569.64,-579.07 604.76,-525.02"/>
<polygon fill="black" stroke="black" points="607.88,-526.64 610.35,-516.34 602,-522.85 607.88,-526.64"/>
</g>
<!-- S -->
<g id="node3" class="node">
<title>S</title>
<ellipse fill="none" stroke="black" stroke-width="2" cx="442" cy="-368" rx="36" ry="18"/>
<text text-anchor="middle" x="442" y="-364.3" font-family="Times,serif" font-size="14.00">Scale</text>
</g>
<!-- P&#45;&gt;S -->
<g id="edge5" class="edge">
<title>P&#45;&gt;S</title>
<path fill="none" stroke="black" d="M305.04,-480.29C343.48,-412.71 354.12,-399.04 402.4,-381.37"/>
<polygon fill="black" stroke="black" points="403.61,-384.65 411.86,-378.01 401.27,-378.06 403.61,-384.65"/>
<text text-anchor="middle" x="405.5" y="-430.8" font-family="Times,serif" font-size="9.00">distributed across</text>
</g>
<!-- P&#45;&gt;BIO -->
<g id="edge2" class="edge">
<title>P&#45;&gt;BIO</title>
<path fill="none" stroke="black" d="M276.17,-481.35C184.53,-400.04 177.47,-387.07 166.57,-266.24"/>
<polygon fill="black" stroke="black" points="170.05,-265.83 165.67,-256.18 163.08,-266.46 170.05,-265.83"/>
<text text-anchor="middle" x="190" y="-371" font-family="Times,serif" font-size="10.00">organised</text>
<text text-anchor="middle" x="190" y="-360" font-family="Times,serif" font-size="10.00">continuity</text>
</g>
<!-- C -->
<g id="node6" class="node">
<title>C</title>
<path fill="none" stroke="black" d="M336,-386C336,-386 286,-386 286,-386 280,-386 274,-380 274,-374 274,-374 274,-362 274,-362 274,-356 280,-350 286,-350 286,-350 336,-350 336,-350 342,-350 348,-356 348,-362 348,-362 348,-374 348,-374 348,-380 342,-386 336,-386"/>
<text text-anchor="middle" x="311" y="-365.2" font-family="Times,serif" font-size="11.00">Continuity</text>
</g>
<!-- P&#45;&gt;C -->
<g id="edge8" class="edge">
<title>P&#45;&gt;C</title>
<path fill="none" stroke="black" stroke-dasharray="5,2" d="M296.31,-479.85C297.91,-459.19 299.57,-446.42 306.85,-396.39"/>
<polygon fill="black" stroke="black" points="310.35,-396.65 308.33,-386.24 303.43,-395.64 310.35,-396.65"/>
</g>
<!-- S&#45;&gt;A -->
<g id="edge6" class="edge">
<title>S&#45;&gt;A</title>
<path fill="none" stroke="black" d="M460.22,-598C494.35,-498.84 495,-485.64 454.25,-395"/>
<polygon fill="black" stroke="black" points="457.35,-393.36 450.04,-385.68 450.97,-396.24 457.35,-393.36"/>
<text text-anchor="middle" x="507.5" y="-495.8" font-family="Times,serif" font-size="9.00">constrains</text>
</g>
<!-- S&#45;&gt;BIO -->
<g id="edge3" class="edge">
<title>S&#45;&gt;BIO</title>
<path fill="none" stroke="black" d="M416.82,-355.17C298.64,-294.99 262.45,-276.79 221.85,-259.87"/>
<polygon fill="black" stroke="black" points="223.11,-256.6 212.53,-256.04 220.44,-263.08 223.11,-256.6"/>
<text text-anchor="middle" x="332.5" y="-306" font-family="Times,serif" font-size="10.00">multiscale</text>
<text text-anchor="middle" x="332.5" y="-295" font-family="Times,serif" font-size="10.00">integration</text>
</g>
<!-- M -->
<g id="node7" class="node">
<title>M</title>
<path fill="none" stroke="black" d="M474.5,-255C474.5,-255 409.5,-255 409.5,-255 403.5,-255 397.5,-249 397.5,-243 397.5,-243 397.5,-231 397.5,-231 397.5,-225 403.5,-219 409.5,-219 409.5,-219 474.5,-219 474.5,-219 480.5,-219 486.5,-225 486.5,-231 486.5,-231 486.5,-243 486.5,-243 486.5,-249 480.5,-255 474.5,-255"/>
<text text-anchor="middle" x="442" y="-240.2" font-family="Times,serif" font-size="11.00">Multiscale</text>
<text text-anchor="middle" x="442" y="-228.2" font-family="Times,serif" font-size="11.00">Organisation</text>
</g>
<!-- S&#45;&gt;M -->
<g id="edge9" class="edge">
<title>S&#45;&gt;M</title>
<path fill="none" stroke="black" stroke-dasharray="5,2" d="M448.75,-350.03C464.05,-308.67 465.58,-297.12 453.32,-264.81"/>
<polygon fill="black" stroke="black" points="456.42,-263.13 449.5,-255.11 449.91,-265.7 456.42,-263.13"/>
</g>
<!-- E -->
<g id="node8" class="node">
<title>E</title>
<path fill="none" stroke="black" d="M58,-145C58,-145 12,-145 12,-145 6,-145 0,-139 0,-133 0,-133 0,-121 0,-121 0,-115 6,-109 12,-109 12,-109 58,-109 58,-109 64,-109 70,-115 70,-121 70,-121 70,-133 70,-133 70,-139 64,-145 58,-145"/>
<text text-anchor="middle" x="35" y="-124.2" font-family="Times,serif" font-size="11.00">Evolution</text>
</g>
<!-- BIO&#45;&gt;E -->
<g id="edge10" class="edge">
<title>BIO&#45;&gt;E</title>
<path fill="none" stroke="black" d="M139.12,-217.78C91.83,-181.2 75.44,-168.1 59.59,-152.58"/>
<polygon fill="black" stroke="black" points="61.77,-149.8 52.23,-145.18 56.8,-154.74 61.77,-149.8"/>
</g>
<!-- Cog -->
<g id="node9" class="node">
<title>Cog</title>
<path fill="none" stroke="black" d="M187.5,-145C187.5,-145 140.5,-145 140.5,-145 134.5,-145 128.5,-139 128.5,-133 128.5,-133 128.5,-121 128.5,-121 128.5,-115 134.5,-109 140.5,-109 140.5,-109 187.5,-109 187.5,-109 193.5,-109 199.5,-115 199.5,-121 199.5,-121 199.5,-133 199.5,-133 199.5,-139 193.5,-145 187.5,-145"/>
<text text-anchor="middle" x="164" y="-124.2" font-family="Times,serif" font-size="11.00">Cognition</text>
</g>
<!-- BIO&#45;&gt;Cog -->
<g id="edge11" class="edge">
<title>BIO&#45;&gt;Cog</title>
<path fill="none" stroke="black" d="M159.36,-217.98C151.09,-183.56 149.19,-170.89 153.64,-154.62"/>
<polygon fill="black" stroke="black" points="156.98,-155.65 156.77,-145.05 150.33,-153.47 156.98,-155.65"/>
</g>
<!-- D -->
<g id="node10" class="node">
<title>D</title>
<path fill="none" stroke="black" d="M318,-145C318,-145 270,-145 270,-145 264,-145 258,-139 258,-133 258,-133 258,-121 258,-121 258,-115 264,-109 270,-109 270,-109 318,-109 318,-109 324,-109 330,-115 330,-121 330,-121 330,-133 330,-133 330,-139 324,-145 318,-145"/>
<text text-anchor="middle" x="294" y="-124.2" font-family="Times,serif" font-size="11.00">Diagnosis</text>
</g>
<!-- BIO&#45;&gt;D -->
<g id="edge12" class="edge">
<title>BIO&#45;&gt;D</title>
<path fill="none" stroke="black" d="M174.47,-217.87C201.04,-169.76 211.26,-156.81 248.28,-142.51"/>
<polygon fill="black" stroke="black" points="249.55,-145.77 257.72,-139.03 247.13,-139.21 249.55,-145.77"/>
</g>
<!-- OP -->
<g id="node11" class="node">
<title>OP</title>
<ellipse fill="none" stroke="black" stroke-width="2" cx="164" cy="-18" rx="85.98" ry="18"/>
<text text-anchor="middle" x="164" y="-15.2" font-family="Times,serif" font-size="11.00">Organised Persistence</text>
</g>
<!-- E&#45;&gt;OP -->
<g id="edge13" class="edge">
<title>E&#45;&gt;OP</title>
<path fill="none" stroke="black" d="M44.66,-108.65C67.76,-65.16 77.84,-51.46 110.62,-37.35"/>
<polygon fill="black" stroke="black" points="112.04,-40.55 119.98,-33.54 109.4,-34.07 112.04,-40.55"/>
</g>
<!-- Cog&#45;&gt;OP -->
<g id="edge14" class="edge">
<title>Cog&#45;&gt;OP</title>
<path fill="none" stroke="black" d="M160.98,-108.75C155.29,-74.02 153.62,-60.12 155.97,-46.15"/>
<polygon fill="black" stroke="black" points="159.42,-46.74 158.23,-36.22 152.6,-45.19 159.42,-46.74"/>
</g>
<!-- D&#45;&gt;OP -->
<g id="edge15" class="edge">
<title>D&#45;&gt;OP</title>
<path fill="none" stroke="black" d="M277.56,-108.8C241.04,-68.43 224.92,-51.48 207.69,-39.91"/>
<polygon fill="black" stroke="black" points="209.4,-36.85 199.05,-34.59 205.73,-42.81 209.4,-36.85"/>
</g>
</g>
</svg>
