<svg xmlns="http://www.w3.org/2000/svg" width="900" height="620" viewBox="0 0 900 620">
  <style>
    .title { font: 600 24px system-ui, sans-serif; fill: #2f3e46; }
    .subtitle { font: 400 14px system-ui, sans-serif; fill: #6b7c85; }
    .node { fill: #f9fbfc; stroke: #94a3ad; stroke-width: 1.5; }
    .centre { fill: #f1f5f7; stroke: #5f7380; stroke-width: 1.8; }
    .label { font: 600 16px system-ui, sans-serif; fill: #2f3e46; text-anchor: middle; }
    .sub { font: 400 13px system-ui, sans-serif; fill: #6b7c85; text-anchor: middle; }
    .line { stroke: #b0bcc5; stroke-width: 1.5; fill: none; }
    .footer { font: 400 13px system-ui, sans-serif; fill: #6b7c85; text-anchor: middle; }
  </style>

  <!-- Title -->
  <text class="title" x="450" y="50" text-anchor="middle">Social Systems as Organised Persistence in APS</text>
  <text class="subtitle" x="450" y="75" text-anchor="middle">Interdependent dimensions of organised social continuity</text>

  <!-- Connections -->
  <path class="line" d="M450 150 L675 300 L450 450 L225 300 Z"/>
  <line class="line" x1="450" y1="300" x2="450" y2="150"/>
  <line class="line" x1="450" y1="300" x2="675" y2="300"/>
  <line class="line" x1="450" y1="300" x2="450" y2="450"/>
  <line class="line" x1="450" y1="300" x2="225" y2="300"/>

  <!-- Centre -->
  <rect class="centre" x="310" y="250" width="280" height="105" rx="18"/>
  <text class="label" x="450" y="287">Organised Persistence</text>
  <text class="sub" x="450" y="313">Social systems sustained</text>
  <text class="sub" x="450" y="333">across time and scale</text>

  <!-- Culture -->
  <rect class="node" x="310" y="110" width="280" height="75" rx="14"/>
  <text class="label" x="450" y="143">Culture</text>
  <text class="sub" x="450" y="165">Extension across time</text>

  <!-- Norms -->
  <rect class="node" x="95" y="265" width="260" height="75" rx="14"/>
  <text class="label" x="225" y="298">Norms</text>
  <text class="sub" x="225" y="320">Regulation of activity</text>

  <!-- Economics -->
  <rect class="node" x="545" y="265" width="260" height="75" rx="14"/>
  <text class="label" x="675" y="298">Economic Organisation</text>
  <text class="sub" x="675" y="320">Viability conditions</text>

  <!-- Institutions -->
  <rect class="node" x="310" y="415" width="280" height="75" rx="14"/>
  <text class="label" x="450" y="448">Institutions</text>
  <text class="sub" x="450" y="470">Stabilisation of constraints</text>

  <!-- Footer -->
  <text class="footer" x="450" y="540">Norms, institutions, culture, and economic organisation</text>
  <text class="footer" x="450" y="563">operate as interdependent dimensions of organised persistence</text>
</svg>