<svg xmlns="http://www.w3.org/2000/svg" width="900" height="620" viewBox="0 0 900 620">
  <style>
    .title { font: 600 24px system-ui, sans-serif; fill: #2f3e46; }
    .subtitle { font: 400 14px system-ui, sans-serif; fill: #6b7c85; }
    .node { fill: #f9fbfc; stroke: #94a3ad; stroke-width: 1.5; }
    .centre { fill: #f1f5f7; stroke: #5f7380; stroke-width: 1.8; }
    .label { font: 600 16px system-ui, sans-serif; fill: #2f3e46; text-anchor: middle; }
    .sub { font: 400 13px system-ui, sans-serif; fill: #6b7c85; text-anchor: middle; }
    .line { stroke: #b0bcc5; stroke-width: 1.5; fill: none; }
    .footer { font: 400 13px system-ui, sans-serif; fill: #6b7c85; text-anchor: middle; }
  </style>

  <!-- Title -->
  <text class="title" x="450" y="50" text-anchor="middle">
    Social Systems as Organised Persistence in APS
  </text>
  <text class="subtitle" x="450" y="75" text-anchor="middle">
    Interdependent dimensions of social organisation
  </text>

  <!-- Connections -->
  <path class="line" d="M450 150 L670 290 L450 430 L230 290 Z"/>
  <line class="line" x1="450" y1="290" x2="450" y2="150"/>
  <line class="line" x1="450" y1="290" x2="670" y2="290"/>
  <line class="line" x1="450" y1="290" x2="450" y2="430"/>
  <line class="line" x1="450" y1="290" x2="230" y2="290"/>

  <!-- Centre -->
  <rect class="centre" x="320" y="240" width="260" height="100" rx="18"/>
  <text class="label" x="450" y="275">Organised Persistence</text>
  <text class="sub" x="450" y="300">Sustained across time and scale</text>

  <!-- Culture -->
  <rect class="node" x="320" y="120" width="260" height="70" rx="14"/>
  <text class="label" x="450" y="150">Culture</text>
  <text class="sub" x="450" y="170">Extension across time</text>

  <!-- Norms -->
  <rect class="node" x="110" y="260" width="240" height="70" rx="14"/>
  <text class="label" x="230" y="290">Norms</text>
  <text class="sub" x="230" y="310">Regulation of activity</text>

  <!-- Economics -->
  <rect class="node" x="550" y="260" width="240" height="70" rx="14"/>
  <text class="label" x="670" y="290">Economic Organisation</text>
  <text class="sub" x="670" y="310">Viability conditions</text>

  <!-- Institutions -->
  <rect class="node" x="320" y="400" width="260" height="70" rx="14"/>
  <text class="label" x="450" y="430">Institutions</text>
  <text class="sub" x="450" y="450">Stabilisation of constraints</text>

  <!-- Footer -->
  <text class="footer" x="450" y="530">
    Processes operating across interacting temporal and organisational scales
  </text>
</svg>