<svg width="624" height="429" xmlns="http://www.w3.org/2000/svg" xmlns:xlink="http://www.w3.org/1999/xlink" xml:space="preserve" overflow="hidden"><g><path d="M0 0 624 0 624 429 0 429Z" fill="#FFFFFF"/><text fill="#111111" font-family="Arial,Arial_MSFontService,sans-serif" font-weight="700" font-size="36" transform="matrix(0.39 0 0 0.39 198.491 27)">APS Temporal Architecture of Life</text><text fill="#333333" font-family="Arial,Arial_MSFontService,sans-serif" font-weight="400" font-size="18" transform="matrix(0.39 0 0 0.39 123.912 40)">Journal</text><text fill="#333333" font-family="Arial,Arial_MSFontService,sans-serif" font-weight="400" font-size="18" transform="matrix(0.39 0 0 0.39 146.936 40)">-</text><text fill="#333333" font-family="Arial,Arial_MSFontService,sans-serif" font-weight="400" font-size="18" transform="matrix(0.39 0 0 0.39 149.273 40)">ready conceptual figure</text><text fill="#333333" font-family="Arial,Arial_MSFontService,sans-serif" font-weight="400" font-size="18" transform="matrix(0.39 0 0 0.39 222.25 40)">: </text><text fill="#333333" font-family="Arial,Arial_MSFontService,sans-serif" font-weight="400" font-size="18" transform="matrix(0.39 0 0 0.39 226.151 40)">present activity</text><text fill="#333333" font-family="Arial,Arial_MSFontService,sans-serif" font-weight="400" font-size="18" transform="matrix(0.39 0 0 0.39 272.97 40)">, </text><text fill="#333333" font-family="Arial,Arial_MSFontService,sans-serif" font-weight="400" font-size="18" transform="matrix(0.39 0 0 0.39 276.871 40)">ongoing continuity</text><text fill="#333333" font-family="Arial,Arial_MSFontService,sans-serif" font-weight="400" font-size="18" transform="matrix(0.39 0 0 0.39 333.463 40)">, </text><text fill="#333333" font-family="Arial,Arial_MSFontService,sans-serif" font-weight="400" font-size="18" transform="matrix(0.39 0 0 0.39 337.364 40)">generational extension</text><text fill="#333333" font-family="Arial,Arial_MSFontService,sans-serif" font-weight="400" font-size="18" transform="matrix(0.39 0 0 0.39 408.006 40)">, </text><text fill="#333333" font-family="Arial,Arial_MSFontService,sans-serif" font-weight="400" font-size="18" transform="matrix(0.39 0 0 0.39 411.906 40)">and historical transformation</text><path d="M312 70.2 312 323.7" stroke="#111111" stroke-width="1.092" fill="none"/><g><path d="M319.644 311.688 312 326.976 304.356 311.688Z" fill="#111111"/></g><path d="M208.65 54.6 415.35 54.6 415.35 92.04 208.65 92.04Z" stroke="#111111" stroke-width="0.936" fill="#FFFFFF"/><text fill="#111111" font-family="Arial,Arial_MSFontService,sans-serif" font-weight="700" font-size="24" transform="matrix(0.39 0 0 0.39 271.605 69)">Biological Agency</text><text fill="#222222" font-family="Arial,Arial_MSFontService,sans-serif" font-weight="400" font-size="18" transform="matrix(0.39 0 0 0.39 245.93 80)">Viability</text><text fill="#222222" font-family="Arial,Arial_MSFontService,sans-serif" font-weight="400" font-size="18" transform="matrix(0.39 0 0 0.39 269.993 80)">-</text><text fill="#222222" font-family="Arial,Arial_MSFontService,sans-serif" font-weight="400" font-size="18" transform="matrix(0.39 0 0 0.39 272.331 80)">oriented</text><text fill="#222222" font-family="Arial,Arial_MSFontService,sans-serif" font-weight="400" font-size="18" transform="matrix(0.39 0 0 0.39 297.699 80)">, </text><text fill="#222222" font-family="Arial,Arial_MSFontService,sans-serif" font-weight="400" font-size="18" transform="matrix(0.39 0 0 0.39 301.6 80)">constraint</text><text fill="#222222" font-family="Arial,Arial_MSFontService,sans-serif" font-weight="400" font-size="18" transform="matrix(0.39 0 0 0.39 332.035 80)">-</text><text fill="#222222" font-family="Arial,Arial_MSFontService,sans-serif" font-weight="400" font-size="18" transform="matrix(0.39 0 0 0.39 334.373 80)">closed activity</text><path d="M208.65 105.3 415.35 105.3 415.35 142.74 208.65 142.74Z" stroke="#111111" stroke-width="0.936" fill="#FFFFFF"/><text fill="#111111" font-family="Arial,Arial_MSFontService,sans-serif" font-weight="700" font-size="24" transform="matrix(0.39 0 0 0.39 285.723 119)">Persistence</text><text fill="#222222" font-family="Arial,Arial_MSFontService,sans-serif" font-weight="400" font-size="18" transform="matrix(0.39 0 0 0.39 248.779 131)">Ongoing continuity of viable organisation</text><path d="M208.65 156 415.35 156 415.35 193.44 208.65 193.44Z" stroke="#111111" stroke-width="0.936" fill="#FFFFFF"/><text fill="#111111" font-family="Arial,Arial_MSFontService,sans-serif" font-weight="700" font-size="24" transform="matrix(0.39 0 0 0.39 287.563 170)">Adaptation</text><text fill="#222222" font-family="Arial,Arial_MSFontService,sans-serif" font-weight="400" font-size="18" transform="matrix(0.39 0 0 0.39 244.097 182)">Reorganisation of constraints under change</text><path d="M208.65 206.7 415.35 206.7 415.35 244.14 208.65 244.14Z" stroke="#111111" stroke-width="0.936" fill="#FFFFFF"/><text fill="#111111" font-family="Arial,Arial_MSFontService,sans-serif" font-weight="700" font-size="24" transform="matrix(0.39 0 0 0.39 287.032 221)">Inheritance</text><text fill="#222222" font-family="Arial,Arial_MSFontService,sans-serif" font-weight="400" font-size="18" transform="matrix(0.39 0 0 0.39 231.613 232)">Continuity of viable organisation across generations</text><path d="M208.65 257.4 415.35 257.4 415.35 294.84 208.65 294.84Z" stroke="#111111" stroke-width="0.936" fill="#FFFFFF"/><text fill="#111111" font-family="Arial,Arial_MSFontService,sans-serif" font-weight="700" font-size="24" transform="matrix(0.39 0 0 0.39 277.935 271)">Transformation</text><text fill="#222222" font-family="Arial,Arial_MSFontService,sans-serif" font-weight="400" font-size="18" transform="matrix(0.39 0 0 0.39 235.906 283)">Durable restructuring integrated into organisation</text><path d="M208.65 308.1 415.35 308.1 415.35 345.54 208.65 345.54Z" stroke="#111111" stroke-width="0.936" fill="#FFFFFF"/><text fill="#111111" font-family="Arial,Arial_MSFontService,sans-serif" font-weight="700" font-size="24" transform="matrix(0.39 0 0 0.39 290.682 322)">Evolution</text><text fill="#222222" font-family="Arial,Arial_MSFontService,sans-serif" font-weight="400" font-size="18" transform="matrix(0.39 0 0 0.39 214.258 334)">Historical transformation of persistence</text><text fill="#222222" font-family="Arial,Arial_MSFontService,sans-serif" font-weight="400" font-size="18" transform="matrix(0.39 0 0 0.39 335.597 334)">-</text><text fill="#222222" font-family="Arial,Arial_MSFontService,sans-serif" font-weight="400" font-size="18" transform="matrix(0.39 0 0 0.39 337.934 334)">sustaining organisation</text><text fill="#111111" font-family="Arial,Arial_MSFontService,sans-serif" font-weight="700" font-size="18" transform="matrix(0.39 0 0 0.39 61.8021 73)">Present activity</text><path d="M120.9 73.32 202.8 73.32" stroke="#666666" stroke-width="0.624" stroke-dasharray="2.73 2.34" fill="none"/><text fill="#111111" font-family="Arial,Arial_MSFontService,sans-serif" font-weight="700" font-size="18" transform="matrix(0.39 0 0 0.39 55.5807 124)">Ongoing continuity</text><path d="M120.9 124.02 202.8 124.02" stroke="#666666" stroke-width="0.624" stroke-dasharray="2.73 2.34" fill="none"/><text fill="#111111" font-family="Arial,Arial_MSFontService,sans-serif" font-weight="700" font-size="18" transform="matrix(0.39 0 0 0.39 38.2124 175)">Reorganisation under change</text><path d="M140.4 174.72 202.8 174.72" stroke="#666666" stroke-width="0.624" stroke-dasharray="2.73 2.34" fill="none"/><text fill="#111111" font-family="Arial,Arial_MSFontService,sans-serif" font-weight="700" font-size="18" transform="matrix(0.39 0 0 0.39 48.5504 225)">Generational continuity</text><path d="M134.55 225.42 202.8 225.42" stroke="#666666" stroke-width="0.624" stroke-dasharray="2.73 2.34" fill="none"/><text fill="#111111" font-family="Arial,Arial_MSFontService,sans-serif" font-weight="700" font-size="18" transform="matrix(0.39 0 0 0.39 51.8633 276)">Durable restructuring</text><path d="M129.48 276.12 202.8 276.12" stroke="#666666" stroke-width="0.624" stroke-dasharray="2.73 2.34" fill="none"/><text fill="#111111" font-family="Arial,Arial_MSFontService,sans-serif" font-weight="700" font-size="18" transform="matrix(0.39 0 0 0.39 46.0122 327)">Historical transformation</text><path d="M138.45 326.82 202.8 326.82" stroke="#666666" stroke-width="0.624" stroke-dasharray="2.73 2.34" fill="none"/><text fill="#111111" font-family="Arial,Arial_MSFontService,sans-serif" font-weight="700" font-size="20" transform="matrix(0.39 0 0 0.39 472.401 137)">Temporal triad</text><text fill="#222222" font-family="Arial,Arial_MSFontService,sans-serif" font-weight="400" font-size="18" transform="matrix(0.39 0 0 0.39 438.718 149)">Persistence </text><text fill="#222222" font-family="Arial,Arial_MSFontService,sans-serif" font-weight="400" font-size="18" transform="matrix(0.39 0 0 0.39 477.345 149)">— </text><text fill="#222222" font-family="Arial,Arial_MSFontService,sans-serif" font-weight="400" font-size="18" transform="matrix(0.39 0 0 0.39 486.315 149)">Adaptation </text><text fill="#222222" font-family="Arial,Arial_MSFontService,sans-serif" font-weight="400" font-size="18" transform="matrix(0.39 0 0 0.39 521.833 149)">— </text><text fill="#222222" font-family="Arial,Arial_MSFontService,sans-serif" font-weight="400" font-size="18" transform="matrix(0.39 0 0 0.39 530.804 149)">Evolution</text><path d="M416.52 124.02 458.25 124.02" stroke="#666666" stroke-width="0.624" stroke-dasharray="2.73 2.34" fill="none"/><path d="M416.52 174.72 458.25 174.72" stroke="#666666" stroke-width="0.624" stroke-dasharray="2.73 2.34" fill="none"/><path d="M416.52 326.82 458.25 326.82" stroke="#666666" stroke-width="0.624" stroke-dasharray="2.73 2.34" fill="none"/><path d="M458.25 124.02C487.5 124.02 471.9 135.72 499.2 135.72" stroke="#666666" stroke-width="0.624" stroke-dasharray="2.73 2.34" fill="none"/><path d="M458.25 174.72C487.5 174.72 471.9 156 499.2 156" stroke="#666666" stroke-width="0.624" stroke-dasharray="2.73 2.34" fill="none"/><path d="M458.25 326.82C487.5 326.82 471.9 168.48 499.2 168.48" stroke="#666666" stroke-width="0.624" stroke-dasharray="2.73 2.34" fill="none"/><text fill="#111111" font-family="Arial,Arial_MSFontService,sans-serif" font-weight="700" font-size="20" transform="matrix(0.39 0 0 0.39 462.359 230)">Organisational triad</text><text fill="#222222" font-family="Arial,Arial_MSFontService,sans-serif" font-weight="400" font-size="18" transform="matrix(0.39 0 0 0.39 429.101 243)">Persistence </text><text fill="#222222" font-family="Arial,Arial_MSFontService,sans-serif" font-weight="400" font-size="18" transform="matrix(0.39 0 0 0.39 467.728 243)">— </text><text fill="#222222" font-family="Arial,Arial_MSFontService,sans-serif" font-weight="400" font-size="18" transform="matrix(0.39 0 0 0.39 476.699 243)">Inheritance </text><text fill="#222222" font-family="Arial,Arial_MSFontService,sans-serif" font-weight="400" font-size="18" transform="matrix(0.39 0 0 0.39 513.382 243)">— </text><text fill="#222222" font-family="Arial,Arial_MSFontService,sans-serif" font-weight="400" font-size="18" transform="matrix(0.39 0 0 0.39 522.353 243)">Transformation</text><path d="M416.52 124.02 458.25 124.02" stroke="#666666" stroke-width="0.624" stroke-dasharray="2.73 2.34" fill="none"/><path d="M416.52 225.42 458.25 225.42" stroke="#666666" stroke-width="0.624" stroke-dasharray="2.73 2.34" fill="none"/><path d="M416.52 276.12 458.25 276.12" stroke="#666666" stroke-width="0.624" stroke-dasharray="2.73 2.34" fill="none"/><path d="M458.25 124.02C487.5 124.02 471.9 229.32 499.2 229.32" stroke="#666666" stroke-width="0.624" stroke-dasharray="2.73 2.34" fill="none"/><path d="M458.25 225.42C487.5 225.42 471.9 237.12 499.2 237.12" stroke="#666666" stroke-width="0.624" stroke-dasharray="2.73 2.34" fill="none"/><path d="M458.25 276.12C487.5 276.12 471.9 244.92 499.2 244.92" stroke="#666666" stroke-width="0.624" stroke-dasharray="2.73 2.34" fill="none"/><path d="M54.6 368.55 569.4 368.55" stroke="#111111" stroke-width="0.624" fill="none"/><text fill="#333333" font-family="Arial,Arial_MSFontService,sans-serif" font-weight="400" font-size="16" transform="matrix(0.39 0 0 0.39 135.272 384)">Conceptual summary</text><text fill="#333333" font-family="Arial,Arial_MSFontService,sans-serif" font-weight="400" font-size="16" transform="matrix(0.39 0 0 0.39 194.229 384)">: </text><text fill="#333333" font-family="Arial,Arial_MSFontService,sans-serif" font-weight="400" font-size="16" transform="matrix(0.39 0 0 0.39 197.696 384)">life is sustained as viability</text><text fill="#333333" font-family="Arial,Arial_MSFontService,sans-serif" font-weight="400" font-size="16" transform="matrix(0.39 0 0 0.39 270.876 384)">-</text><text fill="#333333" font-family="Arial,Arial_MSFontService,sans-serif" font-weight="400" font-size="16" transform="matrix(0.39 0 0 0.39 272.954 384)">oriented agency in the present</text><text fill="#333333" font-family="Arial,Arial_MSFontService,sans-serif" font-weight="400" font-size="16" transform="matrix(0.39 0 0 0.39 356.905 384)">, </text><text fill="#333333" font-family="Arial,Arial_MSFontService,sans-serif" font-weight="400" font-size="16" transform="matrix(0.39 0 0 0.39 360.372 384)">extended through persistence and inheritance</text><text fill="#333333" font-family="Arial,Arial_MSFontService,sans-serif" font-weight="400" font-size="16" transform="matrix(0.39 0 0 0.39 486.994 384)">,</text><text fill="#333333" font-family="Arial,Arial_MSFontService,sans-serif" font-weight="400" font-size="16" transform="matrix(0.39 0 0 0.39 185.736 395)">reorganised through adaptation and transformation</text><text fill="#333333" font-family="Arial,Arial_MSFontService,sans-serif" font-weight="400" font-size="16" transform="matrix(0.39 0 0 0.39 326.23 395)">, </text><text fill="#333333" font-family="Arial,Arial_MSFontService,sans-serif" font-weight="400" font-size="16" transform="matrix(0.39 0 0 0.39 329.698 395)">and expressed historically as evolution</text><text fill="#333333" font-family="Arial,Arial_MSFontService,sans-serif" font-weight="400" font-size="16" transform="matrix(0.39 0 0 0.39 436.53 395)">.</text></g></svg>